<svg width="228" height="158" viewBox="0 0 228 158" fill="none" xmlns="http://www.w3.org/2000/svg">
<g clip-path="url(#clip0_1_4)">
<path d="M112.264 4.40686C112.264 7.75601 112.727 8.81367 114 8.81367C115.273 8.81367 115.736 7.75601 115.736 4.40686C115.736 1.05765 115.273 1.52588e-05 114 1.52588e-05C112.727 1.52588e-05 112.264 1.05765 112.264 4.40686Z" fill="#A16DA3"/>
<path d="M72.9138 17.6273C72.9138 18.7731 78.2373 25.207 79.8577 26.0002C81.941 26.9697 81.0151 24.5019 77.8901 20.6239C74.7656 16.9222 72.9138 15.7764 72.9138 17.6273Z" fill="#A16DA3"/>
<path d="M151.961 19.1256C150.92 20.5358 149.531 22.0341 149.068 22.6511C148.489 23.1799 148.489 23.885 149.184 24.1494C150.225 24.6782 156.244 18.9494 156.244 17.451C156.244 15.9527 153.813 16.9222 151.961 19.1256Z" fill="#A16DA3"/>
<path d="M112.958 21.7697C112.611 22.0341 112.264 24.2375 112.264 26.6172C112.264 29.7901 112.727 30.8478 114 30.8478C115.273 30.8478 115.736 29.7901 115.736 26.5291C115.736 22.3867 114.694 20.5358 112.958 21.7697Z" fill="#A16DA3"/>
<path d="M33.2162 25.2952C32.2903 26.3528 44.7898 35.7834 45.9472 34.9902C46.4102 34.6376 43.8639 32.0817 40.2761 29.4376C36.8039 26.7053 33.5634 24.8545 33.2162 25.2952Z" fill="#A16DA3"/>
<path d="M188.071 29.085C185.641 31.024 183.905 32.8749 184.368 33.2274C185.293 33.8444 194.436 27.4986 194.436 26.2646C194.436 24.7663 192.469 25.6477 188.071 29.085Z" fill="#A16DA3"/>
<path d="M84.0243 30.6715C83.677 31.1122 84.8344 32.9631 86.4548 34.8139C89.9269 38.6921 91.4315 37.7224 88.6538 33.58C86.5705 30.6715 84.9502 29.6139 84.0243 30.6715Z" fill="#A16DA3"/>
<path d="M140.272 33.4037C137.494 37.1054 138.652 39.3088 141.43 35.8715C145.249 31.4647 145.943 29.9664 144.323 29.9664C143.512 29.9664 141.661 31.5528 140.272 33.4037Z" fill="#A16DA3"/>
<path d="M172.447 40.9836C168.396 44.0682 165.387 46.9768 165.85 47.3294C166.776 47.9461 181.706 37.1936 181.706 35.9597C181.706 34.3732 179.507 35.6071 172.447 40.9836Z" fill="#A16DA3"/>
<path d="M52.8915 40.2784C51.9656 41.3359 60.9928 48.1224 62.1502 47.3294C62.6131 46.9768 60.8771 45.0378 58.2151 43.0989C55.6692 41.0718 53.2387 39.8377 52.8915 40.2784Z" fill="#A16DA3"/>
<path d="M105.786 43.3596C104.434 43.7051 102.969 44.3958 102.519 44.9135C102.18 45.4315 100.04 45.8633 97.8996 45.8633C95.759 45.8633 92.4919 46.4673 90.802 47.158C86.7464 48.7118 81.6768 53.2871 81.6768 55.359C81.6768 56.2222 79.6492 58.1216 77.2833 59.5892C71.763 62.9557 67.0313 69.9481 67.0313 74.9551C67.0313 76.9404 67.8199 80.3936 68.8338 82.5518C70.5236 86.3502 70.411 86.6953 67.9325 90.5799C65.9049 93.7743 65.3415 96.1051 65.3415 101.198C65.3415 106.982 65.7922 108.19 68.7211 111.902C72.6642 116.737 79.987 121.399 85.6199 122.607C87.6476 123.039 91.3654 124.506 93.7313 125.974C101.167 130.377 109.165 131.671 112.432 128.909C114.122 127.441 114.348 123.298 114.348 86.7816C114.348 44.8272 114.235 44.2228 109.841 43.1008C108.94 42.8419 107.025 42.9282 105.786 43.3596ZM110.743 46.0359C111.756 46.8128 112.094 54.6684 112.094 75.9046V104.738L109.616 103.529C108.264 102.838 104.659 98.781 101.617 94.5512C95.1959 85.4007 87.0845 78.7535 84.4931 80.3936C83.1414 81.2568 83.0288 81.7749 84.0427 82.6381C84.7187 83.3288 85.9577 83.8468 86.6337 83.8468C89.1122 83.8468 94.9703 89.4579 99.1386 95.7596C101.617 99.3854 105.11 103.184 107.701 104.91L112.094 107.759V116.91C112.094 129.427 110.292 130.635 98.1248 125.974C94.7451 124.679 94.0691 124.074 95.3085 123.47C96.2097 123.039 97.787 122.952 98.9134 123.211C101.167 123.729 102.857 121.312 101.054 119.931C100.265 119.327 99.026 119.499 96.9984 120.535C90.3516 123.902 77.0577 118.809 71.1996 110.694C68.4959 107.068 67.8199 104.996 67.8199 101.026C67.8199 96.0184 70.7492 89.0261 72.8894 89.0261C73.4528 89.0261 76.3821 90.6662 79.4236 92.5656C83.0288 94.8964 85.6199 95.9321 86.7464 95.587C89.2248 94.8964 88.3236 93.0837 85.2817 92.4793C81.226 91.7887 75.0301 87.4722 72.439 83.5876C69.5098 79.1849 69.1719 71.6749 71.8756 67.7898C75.5935 62.2651 86.0704 57.3447 92.0414 58.2942C94.4073 58.6393 95.4211 58.3804 95.9845 57.4309C96.9984 55.2727 94.5199 53.9777 91.5907 55.1865C87.9857 56.4815 83.9301 57.3447 83.9301 56.654C83.9301 56.3948 84.7187 55.0139 85.6199 53.5463C87.8731 50.2657 93.6187 47.5898 98.35 47.5898C101.617 47.5898 102.293 48.0212 103.87 50.7837C107.137 56.7403 103.082 66.4952 96.5476 68.3942C93.8439 69.1711 93.8439 69.3437 95.5337 70.725C97.3362 72.02 97.6744 71.9337 100.828 69.1711C107.363 63.2146 108.827 56.9129 105.786 47.3309C105.222 45.4315 105.448 44.9997 107.25 44.9997C108.377 44.9997 109.954 45.4315 110.743 46.0359Z" fill="#A16DA3"/>
<path d="M118.978 42.468L116.316 43.5258L115.969 86.0077L115.738 128.401L118.747 129.988C121.409 131.221 122.451 131.31 127.195 130.34C130.089 129.723 134.834 127.872 137.612 126.198C140.39 124.523 143.399 123.201 144.325 123.201C147.681 123.201 154.972 119.588 159.023 115.974C167.009 108.923 168.514 99.0518 163.19 90.3263C160.759 86.3603 160.759 86.0958 162.611 81.689C166.199 73.4924 163.421 65.7362 154.856 59.6549C152.426 57.8922 149.186 54.7192 147.797 52.6039C144.672 47.8445 138.885 44.7596 133.098 44.7596C130.668 44.7596 128.121 44.231 127.427 43.5258C125.46 41.7632 122.103 41.3224 118.978 42.468ZM124.534 46.2581C122.566 52.2513 122.451 58.5089 124.187 61.7702C126.386 65.7362 132.056 71.2008 134.024 71.2008C136.455 71.2008 135.529 68.0278 132.635 66.97C129.279 65.8244 124.997 59.3023 124.997 55.5125C124.997 53.9258 125.807 51.282 126.617 49.6071C128.121 47.0511 128.932 46.5226 131.941 46.5226C136.917 46.5226 142.01 48.726 144.672 52.075C145.945 53.6614 146.987 55.1599 146.987 55.6007C146.987 56.3937 141.2 55.4244 139.232 54.2784C137.265 53.1328 134.255 54.014 134.255 55.7766C134.255 57.0989 135.297 57.3633 139.579 57.187C143.167 56.9226 150.458 59.4786 154.394 62.2109C159.023 65.4718 161.222 69.8786 160.991 75.5195C160.759 82.8346 153.815 90.6789 146.292 92.2653C144.44 92.6179 142.936 93.499 142.936 94.2042C142.936 96.6721 146.524 95.7906 152.542 91.8245L158.56 87.7703L160.991 92.0008C166.315 101.079 162.495 112.449 152.31 118.089C144.903 122.144 135.413 123.289 132.982 120.293C131.825 119.059 128.469 120.204 128.469 121.879C128.469 122.584 129.163 123.289 129.973 123.289C130.668 123.377 132.056 123.466 132.982 123.554C136.339 123.73 135.297 125.581 131.131 126.991C119.21 130.781 118.053 129.988 118.053 117.296V107.954L122.566 105.045C125.113 103.282 128.7 99.4926 131.131 95.7024C135.76 88.6518 139.927 84.7735 144.209 83.5398C147.102 82.6583 147.913 80.543 145.829 79.5737C143.746 78.6041 133.561 87.2414 129.626 93.3231C124.765 100.638 121.756 103.811 119.673 103.811C118.284 103.811 118.053 99.4044 118.053 74.9025C118.053 44.7596 118.168 43.8784 123.029 43.8784C124.881 43.8784 125.113 44.3192 124.534 46.2581Z" fill="#A16DA3"/>
<path d="M12.731 54.4682C12.731 55.3497 22.5686 59.0513 24.8833 59.0513C28.3553 59.0513 26.3878 57.5531 20.4853 55.7023C13.8884 53.587 12.731 53.4107 12.731 54.4682Z" fill="#A16DA3"/>
<path d="M208.788 54.9971C207.63 55.7023 206.936 56.4956 207.283 56.7597C208.325 57.5531 214.112 55.7904 214.112 54.6445C214.112 53.4107 211.45 53.587 208.788 54.9971Z" fill="#A16DA3"/>
<path d="M33.5635 61.6073C33.5635 62.1362 36.4571 63.5463 40.0446 64.7804C47.4518 67.2482 47.4518 67.2482 47.4518 66.1023C47.4518 65.6615 45.4843 64.5159 43.1695 63.5463C36.92 61.1665 33.5635 60.5499 33.5635 61.6073Z" fill="#A16DA3"/>
<path d="M185.525 63.1059C182.169 64.2515 179.391 65.5734 179.391 66.1023C179.391 66.543 179.738 66.9838 180.085 66.9838C181.937 66.9838 194.437 62.2244 194.437 61.6073C194.437 60.3736 192.006 60.8143 185.525 63.1059Z" fill="#A16DA3"/>
<path d="M0 86.8145C0 87.8719 1.62031 88.1364 8.10151 88.1364C14.5828 88.1364 16.2031 87.8719 16.2031 86.8145C16.2031 85.7567 14.5828 85.4922 8.10151 85.4922C1.62031 85.4922 0 85.7567 0 86.8145Z" fill="#A16DA3"/>
<path d="M24.536 86.55C24.8832 87.3434 27.4294 87.6956 32.1745 87.6956C42.0121 87.6956 41.8964 86.0211 32.0588 85.6685C25.9248 85.4922 24.1888 85.6685 24.536 86.55Z" fill="#A16DA3"/>
<path d="M186.914 87.2552C186.451 87.7838 189.229 88.1364 194.321 88.1364C199.066 88.1364 202.538 87.7838 202.538 87.2552C202.538 86.7263 199.297 86.3737 195.131 86.3737C190.965 86.3737 187.261 86.7263 186.914 87.2552Z" fill="#A16DA3"/>
<path d="M210.64 87.2552C210.64 87.7838 214.343 88.1364 219.32 88.1364C224.296 88.1364 228 87.7838 228 87.2552C228 86.7263 224.296 86.3737 219.32 86.3737C214.343 86.3737 210.64 86.7263 210.64 87.2552Z" fill="#A16DA3"/>
<path d="M41.4334 107.614C37.7298 109.025 35.5308 111.052 37.6141 111.052C39.1187 111.052 48.6092 107.086 48.6092 106.469C48.6092 105.323 46.063 105.764 41.4334 107.614Z" fill="#A16DA3"/>
<path d="M180.548 106.645C180.548 107.703 187.492 110.435 188.418 109.73C189.344 109.025 184.02 105.852 182.053 105.764C181.243 105.764 180.548 106.116 180.548 106.645Z" fill="#A16DA3"/>
<path d="M195.594 112.726C195.594 113.432 210.64 119.866 212.26 119.866C214.806 119.866 211.797 117.838 205.431 115.106C197.677 111.845 195.594 111.316 195.594 112.726Z" fill="#A16DA3"/>
<path d="M22.5685 115.282C19.4436 116.604 16.8974 117.927 17.1289 118.279C17.2447 118.72 17.5919 118.984 17.939 118.984C19.4436 118.984 31.2487 114.137 31.2487 113.52C31.2487 112.286 28.471 112.815 22.5685 115.282Z" fill="#A16DA3"/>
<path d="M57.9836 128.15C55.7849 129.913 55.5534 130.442 56.9423 130.442C59.141 130.442 61.6872 128.238 61.1085 126.917C60.877 126.388 59.4882 126.917 57.9836 128.15Z" fill="#A16DA3"/>
<path d="M168.396 130.442C170.826 132.293 173.257 133.703 173.835 133.351C175.34 132.733 167.817 126.917 165.618 126.917C164.577 126.917 165.503 128.238 168.396 130.442Z" fill="#A16DA3"/>
<path d="M99.7643 134.496C95.7138 135.818 101.153 136.611 114.116 136.611C125.226 136.611 128.583 136.347 128.235 135.466C127.888 134.761 123.837 134.32 114.463 134.232C107.171 134.144 100.574 134.32 99.7643 134.496Z" fill="#A16DA3"/>
<path d="M178.233 137.317C178.233 137.669 181.59 140.578 185.756 143.662C189.923 146.835 193.279 148.774 193.279 147.981C193.279 147.276 190.27 144.456 186.567 141.635C180.201 136.788 178.233 135.818 178.233 137.317Z" fill="#A16DA3"/>
<path d="M38.7715 142.781C35.0679 145.689 32.2903 148.334 32.7533 148.686C33.6792 149.303 47.4518 139.432 47.4518 138.198C47.4518 136.611 45.2528 137.757 38.7715 142.781Z" fill="#A16DA3"/>
<path d="M98.9544 140.137C99.4174 140.666 105.667 141.018 114.116 141.018C122.912 141.018 128.467 140.666 128.467 140.137C128.467 139.608 122.68 139.256 113.306 139.256C103.584 139.256 98.4915 139.608 98.9544 140.137Z" fill="#A16DA3"/>
<path d="M99.5328 144.544C99.5328 145.073 105.088 145.425 114 145.425C122.911 145.425 128.467 145.073 128.467 144.544C128.467 144.015 122.911 143.662 114 143.662C105.088 143.662 99.5328 144.015 99.5328 144.544Z" fill="#A16DA3"/>
<path d="M98.9544 148.951C98.6072 149.391 99.3016 149.832 100.575 149.832C101.963 149.832 103.005 150.449 103.005 151.242C103.005 151.947 104.51 153.798 106.361 155.208C108.908 157.059 110.875 157.764 114 157.764C117.125 157.764 119.092 157.059 121.639 155.208C123.49 153.798 124.995 151.947 124.995 151.242C124.995 150.449 125.805 149.832 126.731 149.832C127.657 149.832 128.467 149.391 128.467 148.951C128.467 148.422 122.912 148.069 114.116 148.069C105.667 148.069 99.4174 148.422 98.9544 148.951ZM121.523 151.507C121.523 153.534 117.356 156.002 114 156.002C110.644 156.002 106.477 153.534 106.477 151.507C106.477 150.008 107.287 149.832 114 149.832C120.713 149.832 121.523 150.008 121.523 151.507Z" fill="#A16DA3"/>
</g>
<defs>
<clipPath id="clip0_1_4">
<rect width="228" height="158" fill="white"/>
</clipPath>
</defs>
</svg>
