<svg width="108" height="19" viewBox="0 0 108 19" fill="none" xmlns="http://www.w3.org/2000/svg">
<g clip-path="url(#clip0_1_37)">
<path d="M0.455658 18.4865L3.55422 0.560196H10.9179C12.3274 0.560196 13.4848 0.81987 14.3901 1.33922C15.3014 1.85273 15.9393 2.56757 16.3039 3.48372C16.6745 4.39404 16.7596 5.44442 16.5591 6.63485C16.3525 7.83108 15.9029 8.88435 15.2103 9.79471C14.5237 10.6992 13.6306 11.4052 12.5309 11.9129C11.4313 12.4206 10.1615 12.6744 8.72152 12.6744H4.02811L4.54758 9.63711H8.60304C9.36856 9.63711 10.0217 9.51166 10.5624 9.26075C11.1092 9.004 11.5436 8.65096 11.8657 8.20163C12.1877 7.74645 12.3973 7.22421 12.4945 6.63485C12.5978 6.03378 12.5643 5.51154 12.3942 5.06803C12.2241 4.62454 11.9112 4.28025 11.4555 4.03516C11.0059 3.78424 10.4014 3.65878 9.64198 3.65878H6.98085L4.40176 18.4865H0.455658ZM35.736 9.76841C35.3957 11.6824 34.7365 13.3076 33.7583 14.6439C32.7862 15.9802 31.5985 16.9955 30.195 17.69C28.7976 18.3843 27.2908 18.7316 25.6747 18.7316C23.9797 18.7316 22.5185 18.361 21.2912 17.6199C20.07 16.8788 19.186 15.8081 18.6392 14.4075C18.0924 13.0012 17.9891 11.306 18.3294 9.32202C18.6574 7.40219 19.3105 5.7741 20.2887 4.43781C21.2669 3.09567 22.4607 2.07448 23.8703 1.37423C25.2798 0.668152 26.7957 0.315109 28.4179 0.315109C30.1008 0.315109 31.5529 0.688575 32.7741 1.4355C34.0014 2.18243 34.8854 3.26198 35.4261 4.67414C35.9729 6.08046 36.0762 7.77855 35.736 9.76841ZM31.8081 9.32202C32.0207 8.09076 32.0116 7.05788 31.7808 6.22342C31.5559 5.38316 31.1428 4.74708 30.5413 4.31526C29.9398 3.88345 29.1804 3.66754 28.2629 3.66754C27.2666 3.66754 26.3522 3.90678 25.5198 4.38529C24.6935 4.86379 23.9949 5.55822 23.4237 6.46852C22.8587 7.37303 22.4668 8.47297 22.2481 9.76841C22.0294 11.0055 22.0355 12.0384 22.2663 12.867C22.5033 13.6957 22.9256 14.3229 23.5331 14.7489C24.1468 15.1691 24.9092 15.3792 25.8205 15.3792C26.8109 15.3792 27.7162 15.1457 28.5364 14.6789C29.3626 14.2062 30.0583 13.5206 30.6233 12.6219C31.1884 11.7175 31.5833 10.6175 31.8081 9.32202ZM55.6098 6.83615H51.673C51.6852 6.33429 51.6184 5.89082 51.4725 5.50569C51.3267 5.11471 51.108 4.78209 50.8164 4.50783C50.5308 4.23357 50.1815 4.02641 49.7683 3.88636C49.3552 3.74048 48.8904 3.66754 48.374 3.66754C47.3776 3.66754 46.4632 3.90678 45.6308 4.38529C44.7985 4.86379 44.0968 5.55822 43.5257 6.46852C42.9545 7.37303 42.5596 8.46712 42.3409 9.7509C42.1283 10.988 42.1404 12.0238 42.3774 12.8583C42.6143 13.6927 43.0335 14.3229 43.635 14.7489C44.2426 15.1691 44.999 15.3792 45.9043 15.3792C46.4632 15.3792 46.9948 15.312 47.4991 15.1778C48.0034 15.0378 48.4621 14.8394 48.8752 14.5826C49.2945 14.32 49.659 14.002 49.9688 13.6285C50.2847 13.2551 50.5308 12.832 50.707 12.3593H54.6715C54.4224 13.1821 54.0337 13.9757 53.5049 14.7401C52.9823 15.5046 52.3353 16.1873 51.5637 16.7884C50.7921 17.3836 49.9142 17.8562 48.9299 18.2064C47.9456 18.5565 46.8672 18.7316 45.6946 18.7316C43.9996 18.7316 42.5445 18.3581 41.3293 17.6112C40.1203 16.8642 39.2484 15.7876 38.7138 14.3813C38.1791 12.9749 38.0789 11.2798 38.413 9.29578C38.7472 7.3759 39.4003 5.74786 40.3724 4.41155C41.3506 3.06941 42.5384 2.05114 43.9357 1.35672C45.3392 0.662314 46.8399 0.315109 48.4378 0.315109C49.5496 0.315109 50.5551 0.460994 51.4543 0.752764C52.3535 1.04453 53.119 1.47052 53.7508 2.03071C54.3887 2.58507 54.8688 3.26489 55.1907 4.07018C55.5131 4.87546 55.6526 5.79746 55.6098 6.83615ZM56.4439 18.4865L59.5422 0.560196H63.4885L62.1305 8.46424H62.3769L70.4513 0.560196H75.1808L66.8969 8.58677L72.1643 18.4865H67.4438L63.6344 11.1164L61.283 13.4097L60.3902 18.4865H56.4439ZM74.1377 18.4865L77.236 0.560196H89.8127L89.2657 3.68504H80.6354L79.9066 7.95653H87.8895L87.3431 11.0814H79.3597L78.6304 15.3617H87.2971L86.7507 18.4865H74.1377ZM91.6925 3.68504L92.2389 0.560196H107.568L107.021 3.68504H101.307L98.7553 18.4865H94.8545L97.4064 3.68504H91.6925Z" fill="#A16DA3"/>
</g>
<defs>
<clipPath id="clip0_1_37">
<rect width="108" height="19" fill="white"/>
</clipPath>
</defs>
</svg>
