<svg width="168" height="19" viewBox="0 0 168 19" fill="none" xmlns="http://www.w3.org/2000/svg">
<g clip-path="url(#clip0_1_39)">
<path d="M0.528351 18.4865L4.12111 0.560196H12.786C14.3781 0.560196 15.6672 0.755681 16.6535 1.14665C17.6468 1.53762 18.3406 2.08031 18.7352 2.77472C19.1297 3.4633 19.2353 4.25691 19.0522 5.15557C18.9042 5.8558 18.6049 6.46852 18.154 6.99369C17.7102 7.51886 17.1607 7.95073 16.5055 8.28914C15.8504 8.62759 15.1389 8.86684 14.371 9.00693L14.3287 9.18198C15.1459 9.21115 15.8821 9.40372 16.5372 9.75968C17.1924 10.1098 17.682 10.6058 18.0061 11.2477C18.3301 11.8896 18.4041 12.6511 18.2279 13.5323C18.0378 14.4834 17.5833 15.3325 16.8648 16.0794C16.1463 16.8205 15.1882 17.4069 13.9906 17.8387C12.8001 18.2706 11.3947 18.4865 9.77438 18.4865H0.528351ZM5.73784 15.3879H9.46795C10.736 15.3879 11.7046 15.1837 12.3739 14.7752C13.0431 14.3667 13.4447 13.8269 13.5785 13.1559C13.6701 12.6599 13.6102 12.2222 13.3988 11.8429C13.1946 11.4636 12.8459 11.166 12.3527 10.9501C11.8666 10.7342 11.2502 10.6262 10.5035 10.6262H6.67828L5.73784 15.3879ZM7.20665 8.0616H10.5986C11.2186 8.0616 11.7927 7.97112 12.321 7.79026C12.8564 7.60349 13.2967 7.34093 13.6419 7.00248C13.9942 6.65816 14.216 6.25259 14.3076 5.78576C14.4344 5.13222 14.2583 4.60995 13.7793 4.21898C13.3073 3.82217 12.5676 3.62377 11.5602 3.62377H8.09426L7.20665 8.0616ZM37.1612 0.560196H41.7367L39.412 12.2018C39.1513 13.5089 38.549 14.6526 37.605 15.633C36.6611 16.6133 35.46 17.3778 34.0017 17.9263C32.5435 18.469 30.9162 18.7403 29.1198 18.7403C27.3234 18.7403 25.8088 18.469 24.576 17.9263C23.3432 17.3778 22.4521 16.6133 21.9026 15.633C21.3531 14.6526 21.2087 13.5089 21.4694 12.2018L23.7941 0.560196H28.3696L26.0977 11.8779C25.9709 12.5606 26.0342 13.1675 26.2879 13.6985C26.5485 14.2296 26.9783 14.6468 27.5771 14.9502C28.1758 15.2537 28.9155 15.4054 29.7961 15.4054C30.6837 15.4054 31.4868 15.2537 32.2054 14.9502C32.9309 14.6468 33.5262 14.2296 33.9912 13.6985C34.4631 13.1675 34.7626 12.5606 34.8893 11.8779L37.1612 0.560196ZM56.1844 5.7683C56.2196 5.03885 55.9624 4.47574 55.413 4.07893C54.8705 3.68212 54.0498 3.48372 52.9509 3.48372C52.2041 3.48372 51.556 3.57125 51.0065 3.74631C50.457 3.91554 50.0168 4.15187 49.6857 4.45531C49.3616 4.75292 49.1608 5.09721 49.0833 5.48818C49.0059 5.80912 49.0305 6.08924 49.1574 6.32849C49.2912 6.56774 49.499 6.77489 49.7808 6.94994C50.0696 7.11915 50.4113 7.26796 50.8057 7.39634C51.2003 7.51887 51.6194 7.62393 52.0633 7.71143L53.923 8.09657C54.8318 8.27168 55.6489 8.50507 56.3745 8.79685C57.1072 9.08862 57.7201 9.44747 58.2132 9.87348C58.7133 10.2994 59.0656 10.8013 59.2699 11.379C59.4742 11.9567 59.5024 12.619 59.3544 13.3659C59.129 14.463 58.6042 15.4141 57.7799 16.2194C56.9557 17.0189 55.8744 17.6404 54.5359 18.0838C53.1974 18.5215 51.6476 18.7403 49.8865 18.7403C48.1394 18.7403 46.6635 18.5186 45.4589 18.0751C44.2543 17.6316 43.3772 16.9751 42.8277 16.1056C42.2853 15.2303 42.1233 14.1479 42.3416 12.8583H46.7692C46.6917 13.4593 46.7974 13.9611 47.0862 14.3638C47.3821 14.7606 47.8224 15.0611 48.4071 15.2654C48.9918 15.4637 49.6787 15.563 50.4676 15.563C51.2496 15.563 51.9435 15.4696 52.5493 15.2829C53.1622 15.0961 53.6588 14.8364 54.0393 14.5038C54.4197 14.1712 54.6521 13.789 54.7367 13.3572C54.8212 12.9546 54.7472 12.6161 54.5148 12.3418C54.2823 12.0676 53.9089 11.8342 53.3947 11.6416C52.8875 11.4432 52.257 11.2681 51.5032 11.1164L49.2419 10.6262C47.4948 10.2586 46.174 9.68384 45.2793 8.90186C44.3846 8.11993 44.0641 7.06666 44.3177 5.74201C44.5431 4.65663 45.0891 3.70838 45.9556 2.89727C46.8291 2.08031 47.9281 1.44717 49.2525 0.997849C50.5839 0.542691 52.0386 0.315109 53.6166 0.315109C55.2227 0.315109 56.5788 0.545608 57.6848 1.0066C58.7908 1.46176 59.5975 2.09782 60.1046 2.91477C60.6119 3.73173 60.7668 4.68289 60.5696 5.7683H56.1844ZM75.6831 5.7683C75.7184 5.03885 75.4611 4.47574 74.9113 4.07893C74.3688 3.68212 73.5487 3.48372 72.4495 3.48372C71.7025 3.48372 71.0547 3.57125 70.5055 3.74631C69.9556 3.91554 69.5154 4.15187 69.1844 4.45531C68.8602 4.75292 68.6593 5.09721 68.5818 5.48818C68.5043 5.80912 68.5291 6.08924 68.6562 6.32849C68.7895 6.56774 68.9978 6.77489 69.2792 6.94994C69.5681 7.11915 69.9097 7.26796 70.3046 7.39634C70.6989 7.51887 71.1179 7.62393 71.5618 7.71143L73.4216 8.09657C74.3304 8.27168 75.1475 8.50507 75.8734 8.79685C76.6055 9.08862 77.2186 9.44747 77.7121 9.87348C78.2118 10.2994 78.5645 10.8013 78.7684 11.379C78.973 11.9567 79.0009 12.619 78.8528 13.3659C78.6277 14.463 78.1026 15.4141 77.2788 16.2194C76.4543 17.0189 75.3731 17.6404 74.0347 18.0838C72.6963 18.5215 71.1465 18.7403 69.3852 18.7403C67.6383 18.7403 66.1622 18.5186 64.9577 18.0751C63.7526 17.6316 62.876 16.9751 62.3261 16.1056C61.784 15.2303 61.6219 14.1479 61.8403 12.8583H66.2676C66.1901 13.4593 66.2962 13.9611 66.585 14.3638C66.8807 14.7606 67.3209 15.0611 67.9055 15.2654C68.4907 15.4637 69.1769 15.563 69.9661 15.563C70.7485 15.563 71.4422 15.4696 72.0478 15.2829C72.6609 15.0961 73.1575 14.8364 73.5381 14.5038C73.9181 14.1712 74.1506 13.789 74.2355 13.3572C74.3199 12.9546 74.2461 12.6161 74.0136 12.3418C73.7811 12.0676 73.4073 11.8342 72.8934 11.6416C72.3863 11.4432 71.7558 11.2681 71.002 11.1164L68.7405 10.6262C66.9936 10.2586 65.6725 9.68384 64.778 8.90186C63.8834 8.11993 63.5629 7.06666 63.8165 5.74201C64.0415 4.65663 64.5876 3.70838 65.4543 2.89727C66.3278 2.08031 67.4269 1.44717 68.7511 0.997849C70.0827 0.542691 71.537 0.315109 73.1153 0.315109C74.7216 0.315109 76.0773 0.545608 77.1833 1.0066C78.2892 1.46176 79.0958 2.09782 79.6035 2.91477C80.1106 3.73173 80.2656 4.68289 80.0684 5.7683H75.6831ZM89.0741 0.560196L85.481 18.4865H80.906L84.4984 0.560196H89.0741ZM110.94 0.560196L107.347 18.4865H103.395L96.2621 7.20377H96.0929L93.8209 18.4865H89.2458L92.8383 0.560196H96.8535L103.955 11.8342H104.135L106.385 0.560196H110.94ZM111.127 18.4865L114.72 0.560196H129.302L128.668 3.68504H118.661L117.816 7.95653H127.072L126.438 11.0814H117.182L116.337 15.3617H126.386L125.751 18.4865H111.127ZM143.623 5.7683C143.658 5.03885 143.401 4.47574 142.851 4.07893C142.309 3.68212 141.488 3.48372 140.39 3.48372C139.643 3.48372 138.995 3.57125 138.445 3.74631C137.896 3.91554 137.456 4.15187 137.125 4.45531C136.8 4.75292 136.6 5.09721 136.522 5.48818C136.445 5.80912 136.469 6.08924 136.596 6.32849C136.73 6.56774 136.937 6.77489 137.219 6.94994C137.508 7.11915 137.85 7.26796 138.244 7.39634C138.639 7.51887 139.058 7.62393 139.502 7.71143L141.362 8.09657C142.271 8.27168 143.088 8.50507 143.813 8.79685C144.546 9.08862 145.159 9.44747 145.652 9.87348C146.152 10.2994 146.504 10.8013 146.709 11.379C146.913 11.9567 146.941 12.619 146.793 13.3659C146.568 14.463 146.043 15.4141 145.218 16.2194C144.394 17.0189 143.313 17.6404 141.974 18.0838C140.636 18.5215 139.086 18.7403 137.325 18.7403C135.578 18.7403 134.102 18.5186 132.897 18.0751C131.693 17.6316 130.816 16.9751 130.266 16.1056C129.724 15.2303 129.562 14.1479 129.78 12.8583H134.208C134.13 13.4593 134.236 13.9611 134.525 14.3638C134.821 14.7606 135.261 15.0611 135.846 15.2654C136.43 15.4637 137.117 15.563 137.906 15.563C138.688 15.563 139.382 15.4696 139.988 15.2829C140.601 15.0961 141.098 14.8364 141.478 14.5038C141.858 14.1712 142.091 13.789 142.175 13.3572C142.26 12.9546 142.186 12.6161 141.953 12.3418C141.721 12.0676 141.348 11.8342 140.834 11.6416C140.326 11.4432 139.695 11.2681 138.942 11.1164L136.681 10.6262C134.934 10.2586 133.613 9.68384 132.718 8.90186C131.823 8.11993 131.502 7.06666 131.757 5.74201C131.982 4.65663 132.528 3.70838 133.394 2.89727C134.268 2.08031 135.366 1.44717 136.691 0.997849C138.022 0.542691 139.477 0.315109 141.056 0.315109C142.661 0.315109 144.018 0.545608 145.123 1.0066C146.229 1.46176 147.036 2.09782 147.543 2.91477C148.051 3.73173 148.206 4.68289 148.008 5.7683H143.623ZM163.122 5.7683C163.157 5.03885 162.9 4.47574 162.35 4.07893C161.808 3.68212 160.987 3.48372 159.888 3.48372C159.141 3.48372 158.493 3.57125 157.944 3.74631C157.394 3.91554 156.954 4.15187 156.623 4.45531C156.299 4.75292 156.098 5.09721 156.021 5.48818C155.943 5.80912 155.968 6.08924 156.094 6.32849C156.228 6.56774 156.437 6.77489 156.718 6.94994C157.007 7.11915 157.348 7.26796 157.743 7.39634C158.138 7.51887 158.557 7.62393 159.001 7.71143L160.86 8.09657C161.769 8.27168 162.586 8.50507 163.312 8.79685C164.044 9.08862 164.657 9.44747 165.15 9.87348C165.65 10.2994 166.003 10.8013 166.207 11.379C166.412 11.9567 166.44 12.619 166.291 13.3659C166.066 14.463 165.541 15.4141 164.717 16.2194C163.893 17.0189 162.812 17.6404 161.473 18.0838C160.135 18.5215 158.585 18.7403 156.824 18.7403C155.076 18.7403 153.601 18.5186 152.396 18.0751C151.191 17.6316 150.315 16.9751 149.765 16.1056C149.222 15.2303 149.061 14.1479 149.279 12.8583H153.706C153.629 13.4593 153.735 13.9611 154.024 14.3638C154.319 14.7606 154.76 15.0611 155.344 15.2654C155.929 15.4637 156.616 15.563 157.405 15.563C158.187 15.563 158.881 15.4696 159.487 15.2829C160.1 15.0961 160.596 14.8364 160.976 14.5038C161.357 14.1712 161.589 13.789 161.674 13.3572C161.759 12.9546 161.684 12.6161 161.452 12.3418C161.219 12.0676 160.846 11.8342 160.332 11.6416C159.825 11.4432 159.194 11.2681 158.441 11.1164L156.179 10.6262C154.432 10.2586 153.111 9.68384 152.217 8.90186C151.322 8.11993 151.002 7.06666 151.255 5.74201C151.48 4.65663 152.026 3.70838 152.893 2.89727C153.766 2.08031 154.865 1.44717 156.19 0.997849C157.521 0.542691 158.976 0.315109 160.554 0.315109C162.16 0.315109 163.516 0.545608 164.622 1.0066C165.728 1.46176 166.535 2.09782 167.042 2.91477C167.549 3.73173 167.704 4.68289 167.507 5.7683H163.122Z" fill="#A16DA3"/>
</g>
<defs>
<clipPath id="clip0_1_39">
<rect width="168" height="19" fill="white"/>
</clipPath>
</defs>
</svg>
